<svg width="33" height="13" viewBox="0 0 33 13" fill="none" xmlns="http://www.w3.org/2000/svg">
<path d="M3.716 9.076V10H0.00800008V1.684H1.088V9.076H3.716ZM5.64791 7.156C5.65591 7.46 5.68391 7.74 5.73191 7.996C5.77991 8.244 5.85591 8.464 5.95991 8.656C6.07191 8.84 6.21591 8.984 6.39191 9.088C6.57591 9.192 6.80791 9.244 7.08791 9.244C7.31991 9.244 7.53191 9.212 7.72391 9.148C7.92391 9.076 8.06791 9.016 8.15591 8.968L8.34791 9.796C8.24391 9.868 8.06791 9.944 7.81991 10.024C7.57991 10.112 7.29191 10.156 6.95591 10.156C6.51591 10.156 6.14391 10.076 5.83991 9.916C5.54391 9.756 5.29991 9.532 5.10791 9.244C4.92391 8.956 4.79191 8.612 4.71191 8.212C4.63191 7.812 4.59191 7.372 4.59191 6.892C4.59191 5.732 4.78391 4.884 5.16791 4.348C5.55191 3.812 6.05991 3.544 6.69191 3.544C7.40391 3.544 7.90791 3.812 8.20391 4.348C8.49991 4.884 8.64791 5.636 8.64791 6.604C8.64791 6.692 8.64791 6.784 8.64791 6.88C8.64791 6.968 8.64391 7.06 8.63591 7.156H5.64791ZM6.69191 4.42C6.34791 4.42 6.09591 4.592 5.93591 4.936C5.78391 5.28 5.69191 5.74 5.65991 6.316H7.56791C7.56791 5.732 7.50791 5.272 7.38791 4.936C7.26791 4.592 7.03591 4.42 6.69191 4.42ZM11.5599 8.692C11.7919 7.892 12.0039 7.088 12.1959 6.28C12.3879 5.472 12.5719 4.612 12.7479 3.7H13.7679C13.6479 4.284 13.5159 4.86 13.3719 5.428C13.2359 5.996 13.0919 6.544 12.9399 7.072C12.7959 7.6 12.6479 8.1 12.4959 8.572C12.3519 9.036 12.2159 9.46 12.0879 9.844C11.9359 10.292 11.7879 10.668 11.6439 10.972C11.5079 11.284 11.3559 11.532 11.1879 11.716C11.0279 11.908 10.8519 12.044 10.6599 12.124C10.4679 12.212 10.2399 12.256 9.97588 12.256C9.83188 12.256 9.68788 12.236 9.54388 12.196C9.39988 12.164 9.27988 12.128 9.18388 12.088L9.37588 11.248C9.58388 11.336 9.77988 11.38 9.96387 11.38C10.1959 11.38 10.3839 11.296 10.5279 11.128C10.6719 10.96 10.8119 10.708 10.9479 10.372L11.0679 10.072C10.9159 9.656 10.7599 9.196 10.5999 8.692C10.4479 8.18 10.2959 7.648 10.1439 7.096C9.99988 6.544 9.85988 5.98 9.72388 5.404C9.58788 4.82 9.46388 4.252 9.35188 3.7H10.4439C10.5079 4.076 10.5839 4.488 10.6719 4.936C10.7599 5.384 10.8519 5.832 10.9479 6.28C11.0519 6.728 11.1559 7.164 11.2599 7.588C11.3639 8.004 11.4639 8.372 11.5599 8.692ZM18.8737 1.684V2.608H17.0257V10H15.9457V2.608H14.0977V1.684H18.8737ZM20.0268 7.156C20.0348 7.46 20.0628 7.74 20.1108 7.996C20.1588 8.244 20.2348 8.464 20.3388 8.656C20.4508 8.84 20.5948 8.984 20.7708 9.088C20.9548 9.192 21.1868 9.244 21.4668 9.244C21.6988 9.244 21.9108 9.212 22.1028 9.148C22.3028 9.076 22.4468 9.016 22.5348 8.968L22.7268 9.796C22.6228 9.868 22.4468 9.944 22.1988 10.024C21.9588 10.112 21.6708 10.156 21.3348 10.156C20.8948 10.156 20.5228 10.076 20.2188 9.916C19.9228 9.756 19.6788 9.532 19.4868 9.244C19.3028 8.956 19.1708 8.612 19.0908 8.212C19.0108 7.812 18.9708 7.372 18.9708 6.892C18.9708 5.732 19.1628 4.884 19.5468 4.348C19.9308 3.812 20.4388 3.544 21.0708 3.544C21.7828 3.544 22.2868 3.812 22.5828 4.348C22.8788 4.884 23.0268 5.636 23.0268 6.604C23.0268 6.692 23.0268 6.784 23.0268 6.88C23.0268 6.968 23.0228 7.06 23.0148 7.156H20.0268ZM21.0708 4.42C20.7268 4.42 20.4748 4.592 20.3148 4.936C20.1628 5.28 20.0708 5.74 20.0388 6.316H21.9468C21.9468 5.732 21.8868 5.272 21.7668 4.936C21.6468 4.592 21.4148 4.42 21.0708 4.42ZM26.4654 10.156C26.0334 10.156 25.6734 10.072 25.3854 9.904C25.0974 9.736 24.8614 9.508 24.6774 9.22C24.5014 8.924 24.3734 8.576 24.2934 8.176C24.2214 7.776 24.1854 7.34 24.1854 6.868C24.1854 5.828 24.3734 5.016 24.7494 4.432C25.1334 3.84 25.7094 3.544 26.4774 3.544C26.7094 3.544 26.9174 3.572 27.1014 3.628C27.2854 3.684 27.4574 3.756 27.6174 3.844L27.3534 4.696C27.1054 4.536 26.8294 4.456 26.5254 4.456C26.0934 4.456 25.7734 4.652 25.5654 5.044C25.3654 5.436 25.2654 6.044 25.2654 6.868C25.2654 7.212 25.2854 7.532 25.3254 7.828C25.3654 8.116 25.4334 8.364 25.5294 8.572C25.6334 8.78 25.7654 8.944 25.9254 9.064C26.0934 9.184 26.3054 9.244 26.5614 9.244C26.7374 9.244 26.8934 9.224 27.0294 9.184C27.1734 9.136 27.3094 9.076 27.4374 9.004L27.6654 9.808C27.5374 9.896 27.3654 9.976 27.1494 10.048C26.9414 10.12 26.7134 10.156 26.4654 10.156ZM28.7758 10V0.868L29.8078 0.688V3.736C29.9598 3.688 30.1238 3.648 30.2998 3.616C30.4838 3.584 30.6678 3.568 30.8518 3.568C31.1158 3.568 31.3638 3.612 31.5958 3.7C31.8278 3.78 32.0278 3.92 32.1958 4.12C32.3718 4.32 32.5078 4.592 32.6038 4.936C32.7078 5.272 32.7598 5.692 32.7598 6.196V10H31.7278V6.28C31.7278 5.656 31.6478 5.2 31.4878 4.912C31.3278 4.624 31.0278 4.48 30.5878 4.48C30.3558 4.48 30.0958 4.52 29.8078 4.6V10H28.7758Z" fill="#1F4E78"/>
</svg>
